<?xml version="1.0" encoding="UTF-8"?>
<svg id="Layer_1" xmlns="http://www.w3.org/2000/svg" version="1.1" viewBox="0 0 121.87 36">
  <!-- Generator: Adobe Illustrator 29.1.0, SVG Export Plug-In . SVG Version: 2.1.0 Build 142)  -->
  <defs>
    <style>
      .st0 {
        fill: #fff;
      }
    </style>
  </defs>
  <rect width="43.16" height="36"/>
  <g>
    <path d="M47.85,27.27c0-.81.17-1.54.5-2.21.33-.67.8-1.21,1.39-1.61.59-.4,1.27-.6,2.02-.6.71,0,1.35.19,1.92.57.56.38,1.01.84,1.32,1.37v-5.28h1.12v10.65c0,.15.03.27.1.34.07.07.16.11.3.12v.89c-.22.03-.39.04-.51.03-.23-.01-.43-.1-.61-.28-.18-.18-.26-.37-.26-.58v-.84c-.34.56-.8,1-1.38,1.33-.58.33-1.18.49-1.81.49-.59,0-1.14-.12-1.64-.36-.5-.24-.93-.57-1.3-.98-.37-.41-.65-.89-.85-1.41-.2-.53-.3-1.08-.3-1.64ZM55,28.57v-2.63c-.14-.39-.37-.75-.69-1.07-.32-.32-.68-.58-1.08-.77-.4-.19-.8-.29-1.19-.29-.46,0-.88.1-1.25.29s-.69.45-.96.77c-.27.33-.47.7-.62,1.11-.14.41-.21.84-.21,1.27,0,.46.08.89.24,1.31.16.41.39.78.68,1.1.3.32.64.57,1.02.74.38.17.8.26,1.25.26.29,0,.58-.05.89-.16s.6-.26.88-.45c.28-.19.51-.42.7-.68.19-.26.3-.53.35-.82Z"/>
    <path d="M62.02,31.66c-.61,0-1.18-.12-1.71-.35-.53-.23-.98-.56-1.36-.97-.38-.41-.68-.88-.9-1.42-.21-.54-.32-1.11-.32-1.72,0-.79.18-1.52.55-2.19.37-.66.87-1.19,1.52-1.59.65-.4,1.38-.6,2.2-.6s1.58.2,2.21.6c.63.4,1.13.93,1.49,1.59.36.66.54,1.38.54,2.16v.25c0,.08,0,.14-.02.19h-7.33c.05.61.23,1.15.52,1.63s.67.85,1.13,1.13c.47.28.97.42,1.52.42s1.09-.14,1.59-.43c.5-.28.85-.66,1.04-1.12l.97.26c-.18.41-.44.77-.81,1.1-.36.33-.79.58-1.27.76-.49.18-1.01.27-1.57.27ZM58.87,26.83h6.33c-.04-.62-.21-1.16-.5-1.63-.29-.47-.67-.83-1.13-1.1s-.98-.4-1.54-.4-1.07.13-1.53.4c-.46.27-.84.63-1.13,1.11s-.46,1.01-.5,1.62Z"/>
    <path d="M69.96,31.5l-3.47-8.53h1.17l2.93,7.42,2.94-7.42h1.1l-3.47,8.53h-1.2Z"/>
    <path d="M79.25,31.66c-.61,0-1.18-.12-1.71-.35-.53-.23-.98-.56-1.36-.97-.38-.41-.68-.88-.9-1.42-.21-.54-.32-1.11-.32-1.72,0-.79.18-1.52.55-2.19.37-.66.87-1.19,1.52-1.59.65-.4,1.38-.6,2.2-.6s1.58.2,2.21.6c.63.4,1.13.93,1.49,1.59.36.66.54,1.38.54,2.16v.25c0,.08,0,.14-.02.19h-7.33c.05.61.23,1.15.52,1.63s.67.85,1.13,1.13c.47.28.97.42,1.52.42s1.09-.14,1.59-.43c.5-.28.85-.66,1.04-1.12l.97.26c-.18.41-.44.77-.81,1.1-.36.33-.79.58-1.27.76-.49.18-1.01.27-1.57.27ZM76.09,26.83h6.33c-.04-.62-.21-1.16-.5-1.63-.29-.47-.67-.83-1.13-1.1s-.98-.4-1.54-.4-1.07.13-1.53.4c-.46.27-.84.63-1.13,1.11s-.46,1.01-.5,1.62Z"/>
    <path d="M84.92,19.5h1.12v10.12c0,.43.08.71.23.84.15.13.34.2.56.2.2,0,.39-.02.59-.07s.37-.09.51-.13l.2.9c-.21.09-.46.16-.76.21-.3.05-.56.08-.78.08-.5,0-.91-.15-1.21-.45s-.45-.71-.45-1.22v-10.49Z"/>
    <path d="M92.66,31.66c-.61,0-1.18-.12-1.7-.35-.52-.23-.97-.56-1.35-.96-.38-.41-.67-.88-.88-1.41-.21-.53-.31-1.09-.31-1.68s.1-1.18.31-1.71c.21-.53.5-1,.89-1.41.38-.41.84-.73,1.36-.96s1.09-.35,1.7-.35,1.18.12,1.69.35c.51.23.96.56,1.35.96.38.41.68.88.89,1.41.21.53.31,1.1.31,1.71s-.1,1.15-.31,1.68c-.21.53-.5,1-.88,1.41s-.83.73-1.35.96c-.52.23-1.09.35-1.72.35ZM89.55,27.28c0,.63.14,1.21.42,1.72s.65.92,1.13,1.22c.47.3.99.45,1.56.45s1.09-.15,1.56-.46c.47-.3.85-.72,1.13-1.25.29-.53.43-1.1.43-1.72s-.14-1.21-.43-1.73c-.28-.52-.66-.94-1.13-1.24-.47-.3-.99-.46-1.56-.46s-1.09.16-1.55.47c-.47.32-.84.73-1.13,1.25-.29.52-.43,1.1-.43,1.74Z"/>
    <path d="M102.83,31.66c-.71,0-1.35-.19-1.92-.56-.56-.37-1.01-.83-1.34-1.37v5.27h-1.12v-12.03h1v1.67c.34-.53.79-.97,1.36-1.3.57-.33,1.18-.5,1.82-.5.59,0,1.13.12,1.63.37s.92.58,1.28.99c.36.41.64.89.85,1.41.2.53.3,1.08.3,1.64,0,.8-.16,1.53-.48,2.2-.32.67-.78,1.21-1.36,1.61-.58.4-1.26.6-2.04.6ZM102.52,30.68c.47,0,.89-.1,1.27-.29s.69-.45.96-.77c.27-.33.47-.69.62-1.1.14-.41.21-.83.21-1.27s-.08-.89-.24-1.31-.39-.78-.68-1.09c-.3-.32-.64-.57-1.02-.75-.38-.19-.8-.28-1.25-.28-.29,0-.58.05-.89.16s-.6.26-.88.46c-.28.2-.51.43-.7.68-.19.25-.3.52-.35.8v2.62c.17.4.41.76.71,1.08.3.32.64.58,1.03.77.39.19.79.29,1.21.29Z"/>
    <path d="M111.97,31.66c-.61,0-1.18-.12-1.71-.35-.53-.23-.98-.56-1.36-.97-.38-.41-.68-.88-.9-1.42-.21-.54-.32-1.11-.32-1.72,0-.79.18-1.52.55-2.19.37-.66.87-1.19,1.52-1.59.65-.4,1.38-.6,2.2-.6s1.58.2,2.21.6c.63.4,1.13.93,1.49,1.59.36.66.54,1.38.54,2.16v.25c0,.08,0,.14-.02.19h-7.33c.05.61.23,1.15.52,1.63s.67.85,1.13,1.13c.47.28.97.42,1.52.42s1.09-.14,1.59-.43c.5-.28.85-.66,1.04-1.12l.97.26c-.18.41-.44.77-.81,1.1-.36.33-.79.58-1.27.76-.49.18-1.01.27-1.57.27ZM108.82,26.83h6.33c-.04-.62-.21-1.16-.5-1.63-.29-.47-.67-.83-1.13-1.1s-.98-.4-1.54-.4-1.07.13-1.53.4c-.46.27-.84.63-1.13,1.11s-.46,1.01-.5,1.62Z"/>
    <path d="M121.87,23.92c-.75.02-1.4.23-1.96.62s-.96.94-1.19,1.63v5.33h-1.12v-8.53h1.05v2.02c.3-.6.69-1.09,1.18-1.46.49-.37,1.01-.58,1.55-.62.11-.01.21-.02.29-.02s.15,0,.21.02v1.02Z"/>
  </g>
  <g>
    <path d="M59.87,6.47h1.1l-3.68,8.53h-.97l-1.79-4.24-1.78,4.24h-.97l-3.68-8.53h1.08l3.12,7.38,1.58-3.85-1.45-3.52h1l1.08,2.77,1.1-2.77h.99l-1.43,3.52,1.58,3.85,3.11-7.38Z"/>
    <path d="M65.52,15.16c-.61,0-1.18-.12-1.71-.35-.53-.23-.98-.56-1.36-.97-.38-.41-.68-.88-.9-1.42-.21-.54-.32-1.11-.32-1.72,0-.79.18-1.52.55-2.19.37-.66.87-1.19,1.52-1.59.65-.4,1.38-.6,2.2-.6s1.58.2,2.21.6c.63.4,1.13.93,1.49,1.59.36.66.54,1.38.54,2.16v.25c0,.08,0,.14-.02.19h-7.33c.05.61.23,1.15.52,1.63s.67.85,1.13,1.13c.47.28.97.42,1.52.42s1.09-.14,1.59-.43c.5-.28.85-.66,1.04-1.12l.97.26c-.18.41-.44.77-.81,1.1-.36.33-.79.58-1.27.76-.49.18-1.01.27-1.57.27ZM62.37,10.33h6.33c-.04-.62-.21-1.16-.5-1.63-.29-.47-.67-.83-1.13-1.1s-.98-.4-1.54-.4-1.07.13-1.53.4c-.46.27-.84.63-1.13,1.11s-.46,1.01-.5,1.62Z"/>
    <path d="M75.34,15.16c-.67,0-1.29-.17-1.86-.52-.57-.35-1.01-.78-1.33-1.31v1.66h-1V3h1.12v5.28c.38-.58.84-1.05,1.38-1.41.54-.36,1.16-.53,1.87-.53.6,0,1.14.13,1.62.38.48.25.88.59,1.22,1.01.34.42.6.89.77,1.42.17.53.26,1.07.26,1.63,0,.6-.1,1.16-.3,1.68s-.49.99-.86,1.4-.8.73-1.29.96c-.49.23-1.02.35-1.6.35ZM75.07,14.18c.46,0,.89-.09,1.28-.28s.73-.44,1.02-.77c.28-.33.5-.69.66-1.1.15-.41.23-.83.23-1.26,0-.6-.13-1.16-.39-1.69-.26-.53-.61-.95-1.07-1.27-.45-.32-.99-.48-1.6-.48-.44,0-.85.1-1.22.29-.38.2-.71.45-1,.78-.29.32-.53.67-.71,1.05v2.64c.04.29.16.57.35.82.19.26.42.48.7.66.28.19.57.33.88.44s.6.16.89.16Z"/>
  </g>
  <g>
    <path class="st0" d="M14.76,19.5l-8.38,12h-2.5l8.37-12h2.52Z"/>
    <path class="st0" d="M20.22,19.5l-8.38,12h-2.5l8.37-12h2.52Z"/>
    <path class="st0" d="M24.94,31.67c-.72,0-1.37-.12-1.94-.36s-1.06-.57-1.47-1c-.41-.43-.72-.92-.94-1.46-.22-.55-.33-1.12-.33-1.72,0-.82.19-1.58.57-2.26.38-.69.92-1.23,1.61-1.65.7-.41,1.53-.62,2.48-.62s1.78.21,2.47.63c.69.42,1.2.96,1.54,1.64l-2.21.68c-.19-.33-.45-.58-.76-.75s-.67-.26-1.05-.26c-.43,0-.82.11-1.17.32-.35.22-.63.52-.84.91s-.3.85-.3,1.37.1.96.31,1.35.49.7.84.93c.35.23.74.34,1.17.34.27,0,.53-.04.77-.14.24-.09.46-.21.65-.37.19-.16.33-.34.42-.54l2.21.68c-.2.44-.5.83-.89,1.18s-.84.62-1.37.82c-.52.2-1.11.3-1.77.3Z"/>
    <path class="st0" d="M29.74,28.91c0-.57.16-1.07.48-1.49s.77-.76,1.34-.99,1.23-.35,1.98-.35c.37,0,.75.03,1.13.08.38.06.72.15,1,.27v-.47c0-.55-.17-.98-.5-1.28-.33-.3-.83-.45-1.48-.45-.48,0-.95.08-1.39.25s-.9.42-1.39.74l-.73-1.49c.59-.38,1.19-.67,1.8-.86s1.26-.29,1.94-.29c1.26,0,2.24.31,2.95.93.7.62,1.06,1.51,1.06,2.67v2.78c0,.23.04.4.13.5s.22.16.41.18v1.84c-.2.03-.39.06-.55.08-.16.02-.3.03-.41.03-.45,0-.79-.1-1.02-.3-.23-.2-.38-.45-.43-.74l-.05-.46c-.38.5-.86.88-1.44,1.15-.57.27-1.16.41-1.76.41s-1.11-.12-1.58-.36c-.47-.24-.83-.57-1.1-.99-.27-.42-.4-.89-.4-1.41ZM35.25,29.35c.12-.13.23-.26.3-.4.08-.13.12-.25.12-.36v-.87c-.27-.11-.56-.2-.88-.26-.32-.06-.61-.09-.9-.09-.59,0-1.07.12-1.44.37-.38.25-.57.57-.57.98,0,.22.06.43.19.63s.3.36.54.48c.24.12.52.18.85.18s.67-.06,1-.19c.33-.13.59-.28.79-.47Z"/>
  </g>
</svg>