<?xml version="1.0" encoding="UTF-8"?>
<svg id="Layer_1" xmlns="http://www.w3.org/2000/svg" version="1.1" viewBox="0 0 43.16 36">
  <!-- Generator: Adobe Illustrator 29.1.0, SVG Export Plug-In . SVG Version: 2.1.0 Build 142)  -->
  <defs>
    <style>
      .st0 {
        fill: #fff;
      }
    </style>
  </defs>
  <rect width="43.16" height="36"/>
  <g>
    <path class="st0" d="M14.76,19.5l-8.38,12h-2.5l8.37-12h2.52Z"/>
    <path class="st0" d="M20.22,19.5l-8.38,12h-2.5l8.37-12h2.52Z"/>
    <path class="st0" d="M24.94,31.67c-.72,0-1.37-.12-1.94-.36s-1.06-.57-1.47-1c-.41-.43-.72-.92-.94-1.46-.22-.55-.33-1.12-.33-1.72,0-.82.19-1.58.57-2.26.38-.69.92-1.23,1.61-1.65.7-.41,1.53-.62,2.48-.62s1.78.21,2.47.63c.69.42,1.2.96,1.54,1.64l-2.21.68c-.19-.33-.45-.58-.76-.75s-.67-.26-1.05-.26c-.43,0-.82.11-1.17.32-.35.22-.63.52-.84.91s-.3.85-.3,1.37.1.96.31,1.35.49.7.84.93c.35.23.74.34,1.17.34.27,0,.53-.04.77-.14.24-.09.46-.21.65-.37.19-.16.33-.34.42-.54l2.21.68c-.2.44-.5.83-.89,1.18s-.84.62-1.37.82c-.52.2-1.11.3-1.77.3Z"/>
    <path class="st0" d="M29.74,28.91c0-.57.16-1.07.48-1.49s.77-.76,1.34-.99,1.23-.35,1.98-.35c.37,0,.75.03,1.13.08.38.06.72.15,1,.27v-.47c0-.55-.17-.98-.5-1.28-.33-.3-.83-.45-1.48-.45-.48,0-.95.08-1.39.25s-.9.42-1.39.74l-.73-1.49c.59-.38,1.19-.67,1.8-.86s1.26-.29,1.94-.29c1.26,0,2.24.31,2.95.93.7.62,1.06,1.51,1.06,2.67v2.78c0,.23.04.4.13.5s.22.16.41.18v1.84c-.2.03-.39.06-.55.08-.16.02-.3.03-.41.03-.45,0-.79-.1-1.02-.3-.23-.2-.38-.45-.43-.74l-.05-.46c-.38.5-.86.88-1.44,1.15-.57.27-1.16.41-1.76.41s-1.11-.12-1.58-.36c-.47-.24-.83-.57-1.1-.99-.27-.42-.4-.89-.4-1.41ZM35.25,29.35c.12-.13.23-.26.3-.4.08-.13.12-.25.12-.36v-.87c-.27-.11-.56-.2-.88-.26-.32-.06-.61-.09-.9-.09-.59,0-1.07.12-1.44.37-.38.25-.57.57-.57.98,0,.22.06.43.19.63s.3.36.54.48c.24.12.52.18.85.18s.67-.06,1-.19c.33-.13.59-.28.79-.47Z"/>
  </g>
</svg>